<?xml version="1.0" encoding="UTF-8" standalone="no"?>
<svg width="100px" height="62px" viewBox="0 0 100 62" version="1.1" xmlns="http://www.w3.org/2000/svg" xmlns:xlink="http://www.w3.org/1999/xlink" xmlns:sketch="http://www.bohemiancoding.com/sketch/ns">
    <!-- Generator: Sketch 3.4.3 (16044) - http://www.bohemiancoding.com/sketch -->
    <title>msg-send</title>
    <desc>Created with Sketch.</desc>
    <defs></defs>
    <g id="Page-1" stroke="none" stroke-width="1" fill="none" fill-rule="evenodd" sketch:type="MSPage">
        <g id="msg-send" sketch:type="MSLayerGroup" fill="#FFFFFF">
            <path d="M27.695,0.5 L4.107,0.5 C1.842,0.5 0,2.341 0,4.607 C0,6.868 1.841,8.709 4.107,8.709 L27.695,8.709 C29.964,8.709 31.801,6.868 31.801,4.607 C31.801,2.341 29.963,0.5 27.695,0.5 L27.695,0.5 Z" id="Shape" sketch:type="MSShapeGroup"></path>
            <path d="M27.695,39.803 L19.522,39.803 C17.257,39.803 15.415,41.645 15.415,43.909 C15.415,46.17 17.257,48.012 19.522,48.012 L27.695,48.012 C29.964,48.012 31.8,46.17 31.8,43.909 C31.8,41.645 29.963,39.803 27.695,39.803 L27.695,39.803 Z" id="Shape" sketch:type="MSShapeGroup"></path>
            <path d="M27.695,20.151 L11.114,20.151 C8.849,20.151 7.007,21.992 7.007,24.257 C7.007,26.519 8.848,28.361 11.114,28.361 L27.695,28.361 C29.964,28.361 31.8,26.519 31.8,24.257 C31.8,21.992 29.963,20.151 27.695,20.151 L27.695,20.151 Z" id="Shape" sketch:type="MSShapeGroup"></path>
            <path d="M92.993,0.5 L45.871,0.5 C42.001,0.5 38.864,3.637 38.864,7.507 L38.864,41.005 C38.864,44.875 42.001,48.012 45.871,48.012 L57.959,48.012 L57.959,58.698 C57.959,59.831 58.641,60.853 59.689,61.287 C60.037,61.432 60.4,61.501 60.761,61.501 C61.49,61.501 62.206,61.217 62.742,60.68 L75.41,48.012 L92.993,48.012 C96.863,48.012 100,44.875 100,41.005 L100,7.507 C100,3.637 96.863,0.5 92.993,0.5 L92.993,0.5 Z" id="Shape" sketch:type="MSShapeGroup"></path>
        </g>
    </g>
</svg>