<?xml version="1.0" encoding="UTF-8" standalone="no"?>
<svg width="85px" height="57px" viewBox="0 0 85 57" version="1.1" xmlns="http://www.w3.org/2000/svg" xmlns:xlink="http://www.w3.org/1999/xlink" xmlns:sketch="http://www.bohemiancoding.com/sketch/ns">
    <!-- Generator: Sketch 3.4.3 (16044) - http://www.bohemiancoding.com/sketch -->
    <title>notify on</title>
    <desc>Created with Sketch.</desc>
    <defs></defs>
    <g id="Page-1" stroke="none" stroke-width="1" fill="none" fill-rule="evenodd" sketch:type="MSPage">
        <g id="notify-on" sketch:type="MSLayerGroup" fill="#000000">
            <path d="M0,36.2443278 L0,19.9178413 C0,15.931141 3.4,12.7038123 7.6,12.7038123 L23.2,12.7038123 L42,0.364025929 C44,-0.68010984 46.4,0.64879023 46.4,2.73706177 L46.4,53.3301859 C46.4,55.5133789 44,56.8422789 42,55.7032217 L24,43.3634354 L7.6,43.3634354 C3.4,43.4583568 0,40.231028 0,36.2443278 L0,36.2443278 Z" id="Shape" sketch:type="MSShapeGroup"></path>
            <path d="M85,43 L85,13.0923077 L80.0625,13 L80,43 L85,43 Z" id="Path-Copy-2" sketch:type="MSShapeGroup"></path>
            <path d="M75,38 L75,18.0615385 L70.0625,18 L70,38 L75,38 Z" id="Path-Copy" sketch:type="MSShapeGroup"></path>
            <path d="M65,33 L65,23.0307692 L60.0625,23 L60,33 L65,33 Z" id="Path" sketch:type="MSShapeGroup"></path>
        </g>
    </g>
</svg>