<?xml version="1.0" encoding="UTF-8" standalone="no"?>
<svg width="97px" height="56px" viewBox="0 0 97 56" version="1.1" xmlns="http://www.w3.org/2000/svg" xmlns:xlink="http://www.w3.org/1999/xlink" xmlns:sketch="http://www.bohemiancoding.com/sketch/ns">
    <!-- Generator: Sketch 3.4.3 (16044) - http://www.bohemiancoding.com/sketch -->
    <title>vk4</title>
    <desc>Created with Sketch.</desc>
    <defs></defs>
    <g id="Page-1" stroke="none" stroke-width="1" fill="none" fill-rule="evenodd" sketch:type="MSPage">
        <g id="vk4" sketch:type="MSLayerGroup" fill="#FFFFFF">
            <path d="M92.499,45.178 C89.626,41.732 86.245,38.791 83.046,35.668 C80.16,32.853 79.978,31.22 82.298,27.971 C84.83,24.425 87.553,21.015 90.108,17.485 C92.493,14.186 94.931,10.896 96.186,6.946 C96.982,4.433 96.278,3.323 93.701,2.883 C93.257,2.806 92.798,2.802 92.346,2.802 L77.057,2.784 C75.174,2.756 74.133,3.577 73.467,5.246 C72.568,7.502 71.641,9.756 70.57,11.933 C68.14,16.869 65.426,21.64 61.621,25.68 C60.782,26.571 59.854,27.697 58.452,27.233 C56.698,26.593 56.181,23.703 56.21,22.726 L56.195,5.079 C55.855,2.558 55.296,1.434 52.793,0.944 L36.911,0.947 C34.791,0.947 33.728,1.766 32.596,3.092 C31.943,3.858 31.746,4.355 33.088,4.609 C35.724,5.109 37.209,6.815 37.603,9.458 C38.235,13.681 38.191,17.921 37.827,22.161 C37.72,23.399 37.507,24.634 37.016,25.79 C36.248,27.607 35.008,27.977 33.379,26.859 C31.904,25.847 30.868,24.419 29.854,22.985 C26.045,17.603 23.006,11.799 20.528,5.7 C19.812,3.938 18.577,2.87 16.71,2.841 C12.123,2.768 7.535,2.756 2.948,2.845 C0.188,2.897 -0.635,4.237 0.489,6.739 C5.485,17.852 11.046,28.656 18.305,38.498 C22.032,43.549 26.311,48.008 31.839,51.168 C38.104,54.75 44.848,55.828 51.951,55.496 C55.277,55.34 56.276,54.475 56.43,51.16 C56.534,48.892 56.791,46.637 57.91,44.599 C59.008,42.599 60.671,42.218 62.588,43.462 C63.547,44.085 64.355,44.878 65.118,45.714 C66.99,47.762 68.795,49.872 70.738,51.851 C73.175,54.331 76.062,55.796 79.692,55.497 L93.744,55.5 C96.008,55.352 97.182,52.576 95.882,50.049 C94.969,48.279 93.771,46.703 92.499,45.178 L92.499,45.178 Z" id="Shape" sketch:type="MSShapeGroup"></path>
        </g>
    </g>
</svg>