<?xml version="1.0" encoding="UTF-8" standalone="no"?>
<svg width="80px" height="78px" viewBox="0 0 80 78" version="1.1" xmlns="http://www.w3.org/2000/svg">
    <g fill="#000000">
        <path d="M37.9197443,0.664772727 C21.7441194,0.664772727 21.9375,14.0433239 21.9375,14.0433239 L21.8544034,21.1619318 C20.5328335,21.1449934 20.2201705,22.3963155 20.2201705,24.8735795 C20.2201705,28.5868325 22.5931503,32.4780007 24.7627841,34.4850852 C25.498036,37.4042397 26.9165405,39.9768685 28.8068182,41.9360795 C22.3204215,45.7301573 14.5177039,48.2747664 9.4453125,50.8274148 C4.30328854,53.4127026 0,63.1484065 0,70.9090909 C10.066025,75.4068058 29.564691,76.0887784 37.9197443,76.0887784 C42.1679771,76.0887784 49.3101348,75.9112726 56.6164773,75.147017 L56.6164773,72.1278409 L38.9446023,72.1278409 C37.1119435,72.1247386 35.8700284,70.5985924 35.8700284,68.9424716 L35.8700284,58.4446023 C35.8700284,56.7889486 37.2016426,55.3146307 38.9446023,55.3146307 L56.6164773,55.3146307 L56.6164773,46.5617898 C53.4194115,45.2012996 50.0998591,43.7137474 47.0603693,41.9360795 C48.9506,39.9768685 50.3414836,37.4042397 51.0767045,34.4850852 C53.2463392,32.4780007 55.647017,28.5868325 55.647017,24.8735795 C55.647017,22.3963155 55.334339,21.1449899 54.0127841,21.1619318 L53.9019886,14.0433239 C53.9019886,14.0433239 54.0953382,0.664772727 37.9197443,0.664772727 L37.9197443,0.664772727 Z M60.7990057,50.0518466 C60.1535574,50.1080606 59.6594115,50.6504158 59.6633523,51.2982955 L59.6633523,58.4723011 L40.3849432,58.4723011 C39.2976391,58.4723011 38.4737216,59.4060799 38.4737216,60.4389205 L38.4737216,66.9758523 C38.4737216,68.0090039 39.2416529,68.9684607 40.3849432,68.9701705 L59.6633523,68.9701705 L59.6633523,76.0887784 C59.6584065,76.5570092 59.9168993,76.9883246 60.332153,77.2047244 C60.7474068,77.4211243 61.2490163,77.3859185 61.6299716,77.1136364 L78.8309659,65.3693182 C79.3529977,65.01307 79.7732875,64.4032518 79.7727273,63.7073864 C79.7727273,63.0112098 79.3775101,62.3750923 78.8586648,62.0177557 C78.8494321,62.0176529 78.8401986,62.0176529 78.8309659,62.0177557 L61.6299716,50.2734375 C61.4186069,50.1268752 61.1669972,50.0494568 60.9098011,50.0518466 C60.8728877,50.0502006 60.8359192,50.0502006 60.7990057,50.0518466 L60.7990057,50.0518466 Z"></path>
    </g>
</svg>
