<?xml version="1.0" encoding="UTF-8" standalone="no"?>
<svg width="88px" height="60px" viewBox="0 0 88 60" version="1.1" xmlns="http://www.w3.org/2000/svg">
    <g fill="#000000">
        <path d="M0.2,38.6 L0.2,21.4 C0.2,17.2 3.6,13.8 7.8,13.8 L23.4,13.8 L42.2,0.8 C44.2,-0.3 46.6,1.1 46.6,3.3 L46.6,56.6 C46.6,58.9 44.2,60.3 42.2,59.1 L24.2,46.1 L7.8,46.1 C3.6,46.2 0.2,42.8 0.2,38.6 L0.2,38.6 Z M61.4,46.2 L71.6,36 L81.8,46.2 L87.7,40.3 L77.5,30 L87.7,19.8 L81.8,13.9 L71.6,24 L61.4,13.8 L55.5,19.7 L65.7,30 L55.4,40.2 L61.4,46.2 L61.4,46.2 Z"></path>
    </g>
</svg>
