<?xml version="1.0" standalone="no"?>
<!DOCTYPE svg PUBLIC "-//W3C//DTD SVG 20010904//EN"
 "http://www.w3.org/TR/2001/REC-SVG-20010904/DTD/svg10.dtd">
<svg version="1.0" xmlns="http://www.w3.org/2000/svg"
 width="700.000000pt" height="700.000000pt" viewBox="0 0 700.000000 700.000000"
 preserveAspectRatio="xMidYMid meet">
<metadata>
Created by potrace 1.11, written by Peter Selinger 2001-2013
</metadata>
<g transform="translate(0.000000,700.000000) scale(0.100000,-0.100000)"
fill="#000000" stroke="none">
<path d="M6370 6163 c-30 -25 -75 -63 -100 -84 -25 -20 -198 -164 -385 -320
-187 -155 -353 -293 -370 -308 -16 -14 -52 -44 -80 -66 -27 -22 -52 -42 -55
-45 -3 -3 -30 -25 -60 -50 -30 -25 -60 -49 -66 -55 -6 -5 -31 -26 -55 -46 -24
-20 -197 -164 -384 -319 -187 -155 -357 -296 -379 -314 -21 -17 -46 -38 -55
-47 -9 -8 -38 -33 -66 -55 -27 -21 -63 -51 -80 -65 -32 -28 -297 -248 -435
-362 -45 -37 -86 -67 -90 -65 -5 2 -75 68 -157 148 -82 80 -255 247 -384 372
-129 124 -288 279 -354 343 -66 64 -232 225 -369 358 -138 133 -322 312 -410
398 -89 86 -186 180 -216 209 -30 28 -119 115 -197 191 -137 135 -141 139
-147 112 -10 -52 -33 -180 -72 -412 -14 -85 -28 -163 -30 -175 -2 -12 -7 -37
-9 -56 -3 -19 -8 -46 -11 -60 -3 -13 -7 -38 -9 -55 -3 -16 -14 -82 -25 -145
-11 -63 -36 -209 -56 -325 -39 -233 -38 -226 -53 -310 -6 -33 -13 -76 -16 -95
-3 -19 -19 -109 -35 -200 -16 -91 -32 -185 -35 -210 -5 -36 -41 -246 -81 -470
-8 -44 -12 -72 -24 -140 -5 -30 -12 -68 -15 -85 -3 -16 -12 -70 -20 -120 -8
-49 -17 -103 -20 -120 -3 -16 -10 -55 -15 -85 -6 -30 -12 -66 -15 -80 -3 -13
-7 -42 -10 -65 -3 -22 -8 -51 -10 -65 -3 -14 -8 -36 -10 -50 -3 -14 -8 -45
-11 -70 -3 -25 -8 -47 -9 -50 -2 -3 -6 -26 -10 -50 -5 -41 -18 -115 -28 -165
-3 -11 -8 -42 -11 -68 -4 -27 -9 -59 -12 -70 -2 -12 -7 -38 -10 -57 -3 -19 -7
-42 -9 -50 -2 -8 -7 -37 -11 -65 -3 -27 -8 -59 -10 -70 -2 -11 -7 -36 -10 -55
-4 -19 -8 -44 -10 -55 -3 -11 -6 -31 -8 -45 -3 -14 -26 -146 -51 -295 -25
-148 -48 -281 -50 -295 -7 -44 -67 -393 -71 -414 -3 -12 -7 -41 -11 -65 l-6
-45 64 50 c247 189 516 397 529 407 8 7 71 55 140 107 69 52 130 100 136 105
6 6 64 51 128 100 133 102 526 404 571 440 48 37 311 240 413 318 52 40 162
125 245 189 84 65 181 140 217 167 36 28 155 120 265 205 l200 155 34 -37 c19
-20 64 -69 100 -108 36 -39 89 -96 116 -126 28 -30 102 -110 166 -179 64 -68
127 -136 140 -150 50 -55 215 -234 248 -268 31 -34 177 -192 237 -256 15 -16
75 -82 134 -145 59 -63 118 -127 131 -141 13 -15 69 -75 124 -134 55 -59 111
-120 125 -135 14 -15 70 -76 125 -135 55 -59 111 -120 125 -135 137 -148 233
-250 236 -248 1 2 4 17 7 33 5 32 74 434 81 475 6 31 16 95 22 135 3 17 9 50
14 75 5 25 11 59 14 75 2 17 9 57 15 90 6 33 13 76 16 95 3 19 10 60 15 90 5
30 12 71 15 90 3 19 12 71 20 115 8 44 17 98 20 120 3 22 10 60 15 85 8 40 65
369 76 445 3 17 10 56 15 87 6 32 12 70 15 85 2 16 7 39 9 53 8 38 13 66 30
170 8 52 17 106 20 120 2 13 7 40 10 60 3 20 7 47 10 60 3 13 7 40 10 60 3 20
8 47 10 60 3 14 26 144 51 290 25 146 47 276 49 290 3 14 14 81 26 149 11 68
23 134 25 145 2 12 7 37 10 56 4 29 33 194 50 290 10 56 26 156 29 175 2 11 6
34 9 50 3 17 8 48 11 70 3 22 10 60 15 85 9 40 34 185 45 265 3 17 7 41 10 55
5 22 17 97 31 185 2 17 8 50 14 75 5 25 11 63 14 85 3 22 7 47 10 55 3 8 8 33
11 55 3 22 10 65 15 95 11 66 17 102 25 154 4 21 8 47 10 57 5 27 -3 23 -65
-28z"/>
</g>
</svg>
