<?xml version="1.0" encoding="UTF-8" standalone="no"?>
<svg width="98px" height="80px" viewBox="0 0 98 80" version="1.1" xmlns="http://www.w3.org/2000/svg" xmlns:xlink="http://www.w3.org/1999/xlink" xmlns:sketch="http://www.bohemiancoding.com/sketch/ns">
    <!-- Generator: Sketch 3.4.3 (16044) - http://www.bohemiancoding.com/sketch -->
    <title>twitter35</title>
    <desc>Created with Sketch.</desc>
    <defs></defs>
    <g id="Page-1" stroke="none" stroke-width="1" fill="none" fill-rule="evenodd" sketch:type="MSPage">
        <g id="twitter35" sketch:type="MSLayerGroup" fill="#FFFFFF">
            <path d="M97.523,9.526 C97.383,9.361 97.152,9.305 96.955,9.395 C94.036,10.69 90.965,11.621 87.802,12.171 C91.16,9.645 93.662,6.147 94.945,2.136 C95.007,1.944 94.943,1.734 94.786,1.609 C94.628,1.484 94.409,1.468 94.236,1.571 C90.454,3.814 86.358,5.395 82.056,6.272 C78.244,2.316 72.921,0.053 67.412,0.053 C56.208,0.053 47.094,9.167 47.094,20.37 C47.094,21.725 47.225,23.067 47.485,24.37 C31.967,23.412 17.457,15.962 7.591,3.861 C7.49,3.737 7.337,3.668 7.177,3.684 C7.018,3.696 6.876,3.786 6.796,3.923 C4.996,7.011 4.045,10.544 4.045,14.138 C4.045,20.367 6.875,26.191 11.694,30.034 C9.213,29.736 6.79,28.955 4.605,27.742 C4.458,27.659 4.275,27.66 4.128,27.745 C3.981,27.829 3.888,27.985 3.884,28.155 L3.882,28.415 C3.882,37.361 9.777,45.216 18.164,47.824 C15.955,48.18 13.663,48.156 11.41,47.726 C11.244,47.695 11.07,47.752 10.956,47.88 C10.843,48.008 10.805,48.187 10.857,48.349 C13.372,56.199 20.36,61.704 28.494,62.39 C21.709,67.361 13.689,69.98 5.215,69.98 C3.654,69.98 2.082,69.887 0.542,69.706 C0.322,69.681 0.104,69.812 0.028,70.023 C-0.048,70.236 0.033,70.474 0.223,70.595 C9.393,76.476 19.996,79.583 30.887,79.583 C66.512,79.583 87.8,50.645 87.8,22.669 C87.8,21.89 87.785,21.115 87.754,20.342 C91.597,17.531 94.896,14.09 97.556,10.107 C97.675,9.929 97.662,9.692 97.523,9.526 L97.523,9.526 Z" id="Shape" sketch:type="MSShapeGroup"></path>
        </g>
    </g>
</svg>